HIERARCHY
ROOT Hips
{
	OFFSET 0.00000 0.00000 0.00000
	CHANNELS 6 Xposition Yposition Zposition Zrotation Yrotation Xrotation 
	JOINT LHipJoint
	{
		OFFSET 0 0 0
		CHANNELS 3 Zrotation Yrotation Xrotation
		JOINT LeftUpLeg
		{
			OFFSET 1.53139 -1.83434 0.76626
			CHANNELS 3 Zrotation Yrotation Xrotation
			JOINT LeftLeg
			{
				OFFSET 2.56112 -7.03663 0.00000
				CHANNELS 3 Zrotation Yrotation Xrotation
				JOINT LeftFoot
				{
					OFFSET 2.59983 -7.14299 0.00000
					CHANNELS 3 Zrotation Yrotation Xrotation
					JOINT LeftToeBase
					{
						OFFSET 0.13742 -0.37757 2.00054
						CHANNELS 3 Zrotation Yrotation Xrotation
						End Site
						{
							OFFSET 0.00000 -0.00000 1.02897
						}
					}
				}
			}
		}
	}
	JOINT RHipJoint
	{
		OFFSET 0 0 0
		CHANNELS 3 Zrotation Yrotation Xrotation
		JOINT RightUpLeg
		{
			OFFSET -1.40122 -1.83435 0.76627
			CHANNELS 3 Zrotation Yrotation Xrotation
			JOINT RightLeg
			{
				OFFSET -2.54052 -6.98003 0.00000
				CHANNELS 3 Zrotation Yrotation Xrotation
				JOINT RightFoot
				{
					OFFSET -2.63179 -7.23079 0.00000
					CHANNELS 3 Zrotation Yrotation Xrotation
					JOINT RightToeBase
					{
						OFFSET -0.24131 -0.66299 2.03908
						CHANNELS 3 Zrotation Yrotation Xrotation
						End Site
						{
							OFFSET -0.00000 -0.00000 1.07391
						}
					}
				}
			}
		}
	}
	JOINT LowerBack
	{
		OFFSET 0 0 0
		CHANNELS 3 Zrotation Yrotation Xrotation
		JOINT Spine
		{
			OFFSET 0.01174 2.10302 -0.29778
			CHANNELS 3 Zrotation Yrotation Xrotation
			JOINT Spine1
			{
				OFFSET 0.00772 2.13227 -0.01247
				CHANNELS 3 Zrotation Yrotation Xrotation
				JOINT Neck
				{
					OFFSET 0 0 0
					CHANNELS 3 Zrotation Yrotation Xrotation
					JOINT Neck1
					{
						OFFSET -0.09219 1.60848 0.31481
						CHANNELS 3 Zrotation Yrotation Xrotation
						JOINT Head
						{
							OFFSET 0.13974 1.65456 -0.31134
							CHANNELS 3 Zrotation Yrotation Xrotation
							End Site
							{
								OFFSET 0.04742 1.69515 -0.14578
							}
						}
					}
				}
				JOINT LeftShoulder
				{
					OFFSET 0 0 0
					CHANNELS 3 Zrotation Yrotation Xrotation
					JOINT LeftArm
					{
						OFFSET 3.24909 1.02882 -0.23993
						CHANNELS 3 Zrotation Yrotation Xrotation
						JOINT LeftForeArm
						{
							OFFSET 5.32955 -0.00000 -0.00000
							CHANNELS 3 Zrotation Yrotation Xrotation
							JOINT LeftHand
							{
								OFFSET 3.69232 -0.00000 -0.00000
								CHANNELS 3 Zrotation Yrotation Xrotation
								JOINT LeftFingerBase
								{
									OFFSET 0 0 0
									CHANNELS 3 Zrotation Yrotation Xrotation
									JOINT LeftHandIndex1
									{
										OFFSET 0.53660 -0.00000 -0.00000
										CHANNELS 3 Zrotation Yrotation Xrotation
										End Site
										{
											OFFSET 0.43262 -0.00000 -0.00000
										}
									}
								}
								JOINT LThumb
								{
									OFFSET 0 0 0
									CHANNELS 3 Zrotation Yrotation Xrotation
									End Site
									{
										OFFSET 0.43922 -0.00000 0.43922
									}
								}
							}
						}
					}
				}
				JOINT RightShoulder
				{
					OFFSET 0 0 0
					CHANNELS 3 Zrotation Yrotation Xrotation
					JOINT RightArm
					{
						OFFSET -3.21387 0.93002 -0.34594
						CHANNELS 3 Zrotation Yrotation Xrotation
						JOINT RightForeArm
						{
							OFFSET -5.23431 -0.00000 0.00000
							CHANNELS 3 Zrotation Yrotation Xrotation
							JOINT RightHand
							{
								OFFSET -3.55301 -0.00000 -0.00000
								CHANNELS 3 Zrotation Yrotation Xrotation
								JOINT RightFingerBase
								{
									OFFSET 0 0 0
									CHANNELS 3 Zrotation Yrotation Xrotation
									JOINT RightHandIndex1
									{
										OFFSET -0.77252 -0.00000 -0.00000
										CHANNELS 3 Zrotation Yrotation Xrotation
										End Site
										{
											OFFSET -0.62283 -0.00000 -0.00000
										}
									}
								}
								JOINT RThumb
								{
									OFFSET 0 0 0
									CHANNELS 3 Zrotation Yrotation Xrotation
									End Site
									{
										OFFSET -0.63234 -0.00000 0.63234
									}
								}
							}
						}
					}
				}
			}
		}
	}
}
MOTION
Frames: 4
Frame Time: 0.5
0.00 0.00 0.00 0 0 0 0 0 0 -21 0 0 0 0 0 0 0 0 0 0 0 0 0 0 21 0 0 0 0 0 0 0 0 0 0 0 0 0 0 0 0 0 0 0 0 0 0 -16 0 0 21 0 0 11 0 0 0 -8 0 0 0 0 0 0 0 0 0 0 0 0 0 0 0 0 0 0 0 0 8 0 0 0 0 0 0 0 0 0 0 0 0 0 0 0 0 0
0.00 0.00 0.00 50.9830 -84.8723 -51.1370 0.0000 0.0000 0.0000 -18.9194 -8.8257 -10.9717 2.8738 10.4879 30.5715 0.4599 4.5883 -15.3190 0.2216 -3.0300 -8.3624 0.0000 0.0000 0.0000 16.1063 2.1302 -5.8100 -2.8571 -10.4601 30.4800 -1.1551 7.1162 -19.1963 -0.1243 2.2729 -6.2603 0.0284 1.6893 12.6744 0.1020 2.2036 1.0547 -0.2945 1.0599 -6.0000 -9.7100 0.2003 -16.0043 3.4416 0.8143 39.7306 3.3039 -1.1508 17.1471 -0.0000 -0.0000 0.0000 -87.9893 2.3016 13.6343 24.7576 -35.9552 -8.1471 -0.0000 -0.0000 4.8438 28.3384 19.8421 10.3736 -7.1250 0.0000 -0.0000 -0.0512 52.2726 -0.0092 -0.0000 -0.0000 0.0000 85.0356 -0.7617 1.4814 -18.1547 28.3548 -4.6225 0.0000 0.0000 4.7022 -17.6324 6.9533 -2.2035 7.1250 -0.0000 -0.0000 6.6992 -22.7015 3.6188
0.00 0.00 0.00 75.4715 -86.6519 -75.6760 0.0000 0.0000 0.0000 -6.2113 -11.1943 -5.5483 1.5924 7.9597 22.5916 -0.2054 8.2446 -0.9227 0.0000 -0.0376 -0.1033 0.0000 0.0000 0.0000 11.2993 4.0981 -1.3531 -1.7120 -8.2386 23.4412 -0.8312 4.9839 -16.2715 -0.3727 3.9210 -10.8545 0.0687 1.8550 12.7928 -0.3576 2.3882 1.3350 -0.8295 1.1409 -5.7472 -9.5129 -0.0269 -15.4681 3.9824 0.1363 38.7365 3.3526 -1.2723 16.5262 0.0000 0.0000 0.0000 -85.8963 2.4724 4.4716 18.1474 -28.3455 -4.6190 -0.0000 -0.0000 4.7343 26.0014 21.3839 10.0844 -7.1250 0.0000 -0.0000 -2.8388 53.4989 -0.5937 0.0000 0.0000 0.0000 84.8529 -1.3159 7.0670 -20.0723 30.7294 -5.5683 0.0000 0.0000 3.5470 -16.7212 8.1883 -2.4500 7.1250 -0.0000 -0.0000 7.3351 -21.4627 4.1762
0.00 0.00 0.00 176.5700 3.3881 -182.5640 0.0000 0.0000 0.0000 -7.3037 -2.8156 4.9932 0.7075 5.3760 14.9843 0.0763 1.5589 -6.0363 2.7348 -10.2528 -29.7992 0.0000 0.0000 0.0000 -1.9569 5.7703 3.3325 -1.2359 -7.0498 19.8629 -0.3627 6.7161 -11.0101 -1.6384 8.0684 -22.9220 0.7076 1.1364 12.4508 1.3368 1.8087 0.3893 0.6805 0.9287 -6.6027 -11.0065 -2.4447 -21.1288 5.7002 -3.8773 34.1194 3.3933 -3.0563 16.0157 -0.0000 -0.0000 0.0000 -93.7189 1.6206 38.3001 22.6660 -33.7216 -6.9520 -0.0000 0.0000 -1.9436 21.6883 22.8976 8.7964 -7.1250 0.0000 -0.0000 -7.7944 54.2555 -1.7811 -0.0000 -0.0000 0.0000 82.4336 -5.4129 1.8467 -20.8570 31.6610 -5.9747 0.0000 0.0000 2.8708 -16.1889 9.8335 -2.8385 7.1250 -0.0000 -0.0000 7.6876 -19.7948 4.6718
